<?xml version="1.0" encoding="UTF-8" standalone="no"?>
<!DOCTYPE svg PUBLIC "-//W3C//DTD SVG 1.1//EN" "http://www.w3.org/Graphics/SVG/1.1/DTD/svg11.dtd">
<svg xmlns:dc="http://purl.org/dc/elements/1.1/" xmlns:xl="http://www.w3.org/1999/xlink" xmlns="http://www.w3.org/2000/svg" version="1.1" viewBox="2358.3587 -401.75755 625.1031 311.60234" width="625.1031" height="311.60234">
  <defs/>
  <g id="Canvas_1" fill="none" fill-opacity="1" stroke-dasharray="none" stroke="none" stroke-opacity="1">
    <title>Canvas 1</title>
    <rect fill="white" x="2358.3587" y="-401.75755" width="625.1031" height="311.60234"/>
    <g id="Canvas_1_Layer_1">
      <title>Layer 1</title>
      <g id="Graphic_5040">
        <rect x="2739.4618" y="-332.7069" width="40.5" height="40.5" fill="#f9ca9c"/>
        <rect x="2739.4618" y="-332.7069" width="40.5" height="40.5" stroke="white" stroke-linecap="round" stroke-linejoin="round" stroke-width="2"/>
      </g>
      <g id="Graphic_5039">
        <rect x="2860.9618" y="-332.7069" width="40.5" height="40.5" fill="#ececec"/>
        <rect x="2860.9618" y="-332.7069" width="40.5" height="40.5" stroke="white" stroke-linecap="round" stroke-linejoin="round" stroke-width="2"/>
      </g>
      <g id="Graphic_5038">
        <rect x="2901.4618" y="-332.7069" width="40.5" height="40.5" fill="#ececec"/>
        <rect x="2901.4618" y="-332.7069" width="40.5" height="40.5" stroke="white" stroke-linecap="round" stroke-linejoin="round" stroke-width="2"/>
      </g>
      <g id="Graphic_5037">
        <rect x="2941.9618" y="-332.7069" width="40.5" height="40.5" fill="#ececec"/>
        <rect x="2941.9618" y="-332.7069" width="40.5" height="40.5" stroke="white" stroke-linecap="round" stroke-linejoin="round" stroke-width="2"/>
      </g>
      <g id="Graphic_5036">
        <rect x="2739.4618" y="-292.2069" width="40.5" height="40.5" fill="#f9ca9c"/>
        <rect x="2739.4618" y="-292.2069" width="40.5" height="40.5" stroke="white" stroke-linecap="round" stroke-linejoin="round" stroke-width="2"/>
      </g>
      <g id="Graphic_5035">
        <rect x="2779.9618" y="-292.2069" width="40.5" height="40.5" fill="#f9ca9c"/>
        <rect x="2779.9618" y="-292.2069" width="40.5" height="40.5" stroke="white" stroke-linecap="round" stroke-linejoin="round" stroke-width="2"/>
      </g>
      <g id="Graphic_5034">
        <rect x="2860.9618" y="-292.2069" width="40.5" height="40.5" fill="#ececec"/>
        <rect x="2860.9618" y="-292.2069" width="40.5" height="40.5" stroke="white" stroke-linecap="round" stroke-linejoin="round" stroke-width="2"/>
      </g>
      <g id="Graphic_5033">
        <rect x="2901.4618" y="-292.2069" width="40.5" height="40.5" fill="#ececec"/>
        <rect x="2901.4618" y="-292.2069" width="40.5" height="40.5" stroke="white" stroke-linecap="round" stroke-linejoin="round" stroke-width="2"/>
      </g>
      <g id="Graphic_5032">
        <rect x="2941.9618" y="-292.2069" width="40.5" height="40.5" fill="#ececec"/>
        <rect x="2941.9618" y="-292.2069" width="40.5" height="40.5" stroke="white" stroke-linecap="round" stroke-linejoin="round" stroke-width="2"/>
      </g>
      <g id="Graphic_5031">
        <rect x="2739.4618" y="-252.2069" width="40.5" height="40.5" fill="#f9ca9c"/>
        <rect x="2739.4618" y="-252.2069" width="40.5" height="40.5" stroke="white" stroke-linecap="round" stroke-linejoin="round" stroke-width="2"/>
      </g>
      <g id="Graphic_5030">
        <rect x="2779.9618" y="-252.2069" width="40.5" height="40.5" fill="#f9ca9c"/>
        <rect x="2779.9618" y="-252.2069" width="40.5" height="40.5" stroke="white" stroke-linecap="round" stroke-linejoin="round" stroke-width="2"/>
      </g>
      <g id="Graphic_5029">
        <rect x="2820.4618" y="-252.2069" width="40.5" height="40.5" fill="#f9ca9c"/>
        <rect x="2820.4618" y="-252.2069" width="40.5" height="40.5" stroke="white" stroke-linecap="round" stroke-linejoin="round" stroke-width="2"/>
      </g>
      <g id="Graphic_5028">
        <rect x="2860.9618" y="-252.2069" width="40.5" height="40.5" fill="#ececec"/>
        <rect x="2860.9618" y="-252.2069" width="40.5" height="40.5" stroke="white" stroke-linecap="round" stroke-linejoin="round" stroke-width="2"/>
      </g>
      <g id="Graphic_5027">
        <rect x="2901.4618" y="-252.2069" width="40.5" height="40.5" fill="#ececec"/>
        <rect x="2901.4618" y="-252.2069" width="40.5" height="40.5" stroke="white" stroke-linecap="round" stroke-linejoin="round" stroke-width="2"/>
      </g>
      <g id="Graphic_5026">
        <rect x="2941.9618" y="-252.2069" width="40.5" height="40.5" fill="#ececec"/>
        <rect x="2941.9618" y="-252.2069" width="40.5" height="40.5" stroke="white" stroke-linecap="round" stroke-linejoin="round" stroke-width="2"/>
      </g>
      <g id="Graphic_5025">
        <rect x="2739.4618" y="-212.2069" width="40.5" height="40.5" fill="#f9ca9c"/>
        <rect x="2739.4618" y="-212.2069" width="40.5" height="40.5" stroke="white" stroke-linecap="round" stroke-linejoin="round" stroke-width="2"/>
      </g>
      <g id="Graphic_5024">
        <rect x="2779.9618" y="-212.2069" width="40.5" height="40.5" fill="#f9ca9c"/>
        <rect x="2779.9618" y="-212.2069" width="40.5" height="40.5" stroke="white" stroke-linecap="round" stroke-linejoin="round" stroke-width="2"/>
      </g>
      <g id="Graphic_5023">
        <rect x="2820.4618" y="-212.2069" width="40.5" height="40.5" fill="#f9ca9c"/>
        <rect x="2820.4618" y="-212.2069" width="40.5" height="40.5" stroke="white" stroke-linecap="round" stroke-linejoin="round" stroke-width="2"/>
      </g>
      <g id="Graphic_5022">
        <rect x="2860.9618" y="-212.2069" width="40.5" height="40.5" fill="#f9ca9c"/>
        <rect x="2860.9618" y="-212.2069" width="40.5" height="40.5" stroke="white" stroke-linecap="round" stroke-linejoin="round" stroke-width="2"/>
      </g>
      <g id="Graphic_5021">
        <rect x="2901.4618" y="-212.2069" width="40.5" height="40.5" fill="#ececec"/>
        <rect x="2901.4618" y="-212.2069" width="40.5" height="40.5" stroke="white" stroke-linecap="round" stroke-linejoin="round" stroke-width="2"/>
      </g>
      <g id="Graphic_5020">
        <rect x="2941.9618" y="-212.2069" width="40.5" height="40.5" fill="#ececec"/>
        <rect x="2941.9618" y="-212.2069" width="40.5" height="40.5" stroke="white" stroke-linecap="round" stroke-linejoin="round" stroke-width="2"/>
      </g>
      <g id="Graphic_5019">
        <rect x="2739.4618" y="-172.2069" width="40.5" height="40.5" fill="#f9ca9c"/>
        <rect x="2739.4618" y="-172.2069" width="40.5" height="40.5" stroke="white" stroke-linecap="round" stroke-linejoin="round" stroke-width="2"/>
      </g>
      <g id="Graphic_5018">
        <rect x="2779.9618" y="-172.2069" width="40.5" height="40.5" fill="#f9ca9c"/>
        <rect x="2779.9618" y="-172.2069" width="40.5" height="40.5" stroke="white" stroke-linecap="round" stroke-linejoin="round" stroke-width="2"/>
      </g>
      <g id="Graphic_5017">
        <rect x="2820.4618" y="-172.2069" width="40.5" height="40.5" fill="#f9ca9c"/>
        <rect x="2820.4618" y="-172.2069" width="40.5" height="40.5" stroke="white" stroke-linecap="round" stroke-linejoin="round" stroke-width="2"/>
      </g>
      <g id="Graphic_5016">
        <rect x="2860.9618" y="-172.2069" width="40.5" height="40.5" fill="#f9ca9c"/>
        <rect x="2860.9618" y="-172.2069" width="40.5" height="40.5" stroke="white" stroke-linecap="round" stroke-linejoin="round" stroke-width="2"/>
      </g>
      <g id="Graphic_5015">
        <rect x="2901.4618" y="-172.2069" width="40.5" height="40.5" fill="#f9ca9c"/>
        <rect x="2901.4618" y="-172.2069" width="40.5" height="40.5" stroke="white" stroke-linecap="round" stroke-linejoin="round" stroke-width="2"/>
      </g>
      <g id="Graphic_5014">
        <rect x="2941.9618" y="-172.2069" width="40.5" height="40.5" fill="#ececec"/>
        <rect x="2941.9618" y="-172.2069" width="40.5" height="40.5" stroke="white" stroke-linecap="round" stroke-linejoin="round" stroke-width="2"/>
      </g>
      <g id="Graphic_5013">
        <rect x="2739.4618" y="-132.2069" width="40.5" height="40.5" fill="#f9ca9c"/>
        <rect x="2739.4618" y="-132.2069" width="40.5" height="40.5" stroke="white" stroke-linecap="round" stroke-linejoin="round" stroke-width="2"/>
      </g>
      <g id="Graphic_5012">
        <rect x="2779.9618" y="-132.2069" width="40.5" height="40.5" fill="#f9ca9c"/>
        <rect x="2779.9618" y="-132.2069" width="40.5" height="40.5" stroke="white" stroke-linecap="round" stroke-linejoin="round" stroke-width="2"/>
      </g>
      <g id="Graphic_5011">
        <rect x="2820.4618" y="-132.2069" width="40.5" height="40.5" fill="#f9ca9c"/>
        <rect x="2820.4618" y="-132.2069" width="40.5" height="40.5" stroke="white" stroke-linecap="round" stroke-linejoin="round" stroke-width="2"/>
      </g>
      <g id="Graphic_5010">
        <rect x="2860.9618" y="-132.2069" width="40.5" height="40.5" fill="#f9ca9c"/>
        <rect x="2860.9618" y="-132.2069" width="40.5" height="40.5" stroke="white" stroke-linecap="round" stroke-linejoin="round" stroke-width="2"/>
      </g>
      <g id="Graphic_5009">
        <rect x="2901.4618" y="-132.2069" width="40.5" height="40.5" fill="#f9ca9c"/>
        <rect x="2901.4618" y="-132.2069" width="40.5" height="40.5" stroke="white" stroke-linecap="round" stroke-linejoin="round" stroke-width="2"/>
      </g>
      <g id="Graphic_5008">
        <rect x="2941.9618" y="-132.2069" width="40.5" height="40.5" fill="#f9ca9c"/>
        <rect x="2941.9618" y="-132.2069" width="40.5" height="40.5" stroke="white" stroke-linecap="round" stroke-linejoin="round" stroke-width="2"/>
      </g>
      <g id="Graphic_5006">
        <rect x="2419.439" y="-332.1552" width="40.5" height="40.5" fill="#f9ca9c"/>
        <rect x="2419.439" y="-332.1552" width="40.5" height="40.5" stroke="white" stroke-linecap="round" stroke-linejoin="round" stroke-width="2"/>
      </g>
      <g id="Graphic_5005">
        <rect x="2459.939" y="-332.1552" width="40.5" height="40.5" fill="#ececec"/>
        <rect x="2459.939" y="-332.1552" width="40.5" height="40.5" stroke="white" stroke-linecap="round" stroke-linejoin="round" stroke-width="2"/>
      </g>
      <g id="Graphic_5004">
        <rect x="2500.439" y="-332.1552" width="40.5" height="40.5" fill="#f9ca9c"/>
        <rect x="2500.439" y="-332.1552" width="40.5" height="40.5" stroke="white" stroke-linecap="round" stroke-linejoin="round" stroke-width="2"/>
      </g>
      <g id="Graphic_5003">
        <rect x="2540.939" y="-332.1552" width="40.5" height="40.5" fill="#ececec"/>
        <rect x="2540.939" y="-332.1552" width="40.5" height="40.5" stroke="white" stroke-linecap="round" stroke-linejoin="round" stroke-width="2"/>
      </g>
      <g id="Graphic_5002">
        <rect x="2581.439" y="-332.1552" width="40.5" height="40.5" fill="#ececec"/>
        <rect x="2581.439" y="-332.1552" width="40.5" height="40.5" stroke="white" stroke-linecap="round" stroke-linejoin="round" stroke-width="2"/>
      </g>
      <g id="Graphic_5001">
        <rect x="2419.439" y="-291.6552" width="40.5" height="40.5" fill="#f9ca9c"/>
        <rect x="2419.439" y="-291.6552" width="40.5" height="40.5" stroke="white" stroke-linecap="round" stroke-linejoin="round" stroke-width="2"/>
      </g>
      <g id="Graphic_5000">
        <rect x="2459.939" y="-291.6552" width="40.5" height="40.5" fill="#f9ca9c"/>
        <rect x="2459.939" y="-291.6552" width="40.5" height="40.5" stroke="white" stroke-linecap="round" stroke-linejoin="round" stroke-width="2"/>
      </g>
      <g id="Graphic_4999">
        <rect x="2500.439" y="-291.6552" width="40.5" height="40.5" fill="#f9ca9c"/>
        <rect x="2500.439" y="-291.6552" width="40.5" height="40.5" stroke="white" stroke-linecap="round" stroke-linejoin="round" stroke-width="2"/>
      </g>
      <g id="Graphic_4998">
        <rect x="2540.939" y="-291.6552" width="40.5" height="40.5" fill="#f9ca9c"/>
        <rect x="2540.939" y="-291.6552" width="40.5" height="40.5" stroke="white" stroke-linecap="round" stroke-linejoin="round" stroke-width="2"/>
      </g>
      <g id="Graphic_4997">
        <rect x="2581.439" y="-291.6552" width="40.5" height="40.5" fill="#f9ca9c"/>
        <rect x="2581.439" y="-291.6552" width="40.5" height="40.5" stroke="white" stroke-linecap="round" stroke-linejoin="round" stroke-width="2"/>
      </g>
      <g id="Graphic_4996">
        <rect x="2621.939" y="-291.6552" width="40.5" height="40.5" fill="#f9ca9c"/>
        <rect x="2621.939" y="-291.6552" width="40.5" height="40.5" stroke="white" stroke-linecap="round" stroke-linejoin="round" stroke-width="2"/>
      </g>
      <g id="Graphic_4995">
        <rect x="2459.939" y="-251.6552" width="40.5" height="40.5" fill="#ececec"/>
        <rect x="2459.939" y="-251.6552" width="40.5" height="40.5" stroke="white" stroke-linecap="round" stroke-linejoin="round" stroke-width="2"/>
      </g>
      <g id="Graphic_4994">
        <rect x="2500.439" y="-251.6552" width="40.5" height="40.5" fill="#f9ca9c"/>
        <rect x="2500.439" y="-251.6552" width="40.5" height="40.5" stroke="white" stroke-linecap="round" stroke-linejoin="round" stroke-width="2"/>
      </g>
      <g id="Graphic_4993">
        <rect x="2540.939" y="-251.6552" width="40.5" height="40.5" fill="#ececec"/>
        <rect x="2540.939" y="-251.6552" width="40.5" height="40.5" stroke="white" stroke-linecap="round" stroke-linejoin="round" stroke-width="2"/>
      </g>
      <g id="Graphic_4992">
        <rect x="2581.439" y="-251.6552" width="40.5" height="40.5" fill="#ececec"/>
        <rect x="2581.439" y="-251.6552" width="40.5" height="40.5" stroke="white" stroke-linecap="round" stroke-linejoin="round" stroke-width="2"/>
      </g>
      <g id="Graphic_4991">
        <rect x="2419.439" y="-211.6552" width="40.5" height="40.5" fill="#f9ca9c"/>
        <rect x="2419.439" y="-211.6552" width="40.5" height="40.5" stroke="white" stroke-linecap="round" stroke-linejoin="round" stroke-width="2"/>
      </g>
      <g id="Graphic_4990">
        <rect x="2459.939" y="-211.6552" width="40.5" height="40.5" fill="#ececec"/>
        <rect x="2459.939" y="-211.6552" width="40.5" height="40.5" stroke="white" stroke-linecap="round" stroke-linejoin="round" stroke-width="2"/>
      </g>
      <g id="Graphic_4989">
        <rect x="2500.439" y="-211.6552" width="40.5" height="40.5" fill="#f9ca9c"/>
        <rect x="2500.439" y="-211.6552" width="40.5" height="40.5" stroke="white" stroke-linecap="round" stroke-linejoin="round" stroke-width="2"/>
      </g>
      <g id="Graphic_4988">
        <rect x="2540.939" y="-211.6552" width="40.5" height="40.5" fill="#f9ca9c"/>
        <rect x="2540.939" y="-211.6552" width="40.5" height="40.5" stroke="white" stroke-linecap="round" stroke-linejoin="round" stroke-width="2"/>
      </g>
      <g id="Graphic_4987">
        <rect x="2581.439" y="-211.6552" width="40.5" height="40.5" fill="#ececec"/>
        <rect x="2581.439" y="-211.6552" width="40.5" height="40.5" stroke="white" stroke-linecap="round" stroke-linejoin="round" stroke-width="2"/>
      </g>
      <g id="Graphic_4986">
        <rect x="2621.939" y="-211.6552" width="40.5" height="40.5" fill="#f9ca9c"/>
        <rect x="2621.939" y="-211.6552" width="40.5" height="40.5" stroke="white" stroke-linecap="round" stroke-linejoin="round" stroke-width="2"/>
      </g>
      <g id="Graphic_4985">
        <rect x="2419.439" y="-171.6552" width="40.5" height="40.5" fill="#f9ca9c"/>
        <rect x="2419.439" y="-171.6552" width="40.5" height="40.5" stroke="white" stroke-linecap="round" stroke-linejoin="round" stroke-width="2"/>
      </g>
      <g id="Graphic_4984">
        <rect x="2459.939" y="-171.6552" width="40.5" height="40.5" fill="#ececec"/>
        <rect x="2459.939" y="-171.6552" width="40.5" height="40.5" stroke="white" stroke-linecap="round" stroke-linejoin="round" stroke-width="2"/>
      </g>
      <g id="Graphic_4983">
        <rect x="2500.439" y="-171.6552" width="40.5" height="40.5" fill="#f9ca9c"/>
        <rect x="2500.439" y="-171.6552" width="40.5" height="40.5" stroke="white" stroke-linecap="round" stroke-linejoin="round" stroke-width="2"/>
      </g>
      <g id="Graphic_4982">
        <rect x="2540.939" y="-171.6552" width="40.5" height="40.5" fill="#f9ca9c"/>
        <rect x="2540.939" y="-171.6552" width="40.5" height="40.5" stroke="white" stroke-linecap="round" stroke-linejoin="round" stroke-width="2"/>
      </g>
      <g id="Graphic_4981">
        <rect x="2581.439" y="-171.6552" width="40.5" height="40.5" fill="#f9ca9c"/>
        <rect x="2581.439" y="-171.6552" width="40.5" height="40.5" stroke="white" stroke-linecap="round" stroke-linejoin="round" stroke-width="2"/>
      </g>
      <g id="Graphic_4980">
        <rect x="2621.939" y="-171.6552" width="40.5" height="40.5" fill="#f9ca9c"/>
        <rect x="2621.939" y="-171.6552" width="40.5" height="40.5" stroke="white" stroke-linecap="round" stroke-linejoin="round" stroke-width="2"/>
      </g>
      <g id="Graphic_4979">
        <rect x="2419.439" y="-131.6552" width="40.5" height="40.5" fill="#f9ca9c"/>
        <rect x="2419.439" y="-131.6552" width="40.5" height="40.5" stroke="white" stroke-linecap="round" stroke-linejoin="round" stroke-width="2"/>
      </g>
      <g id="Graphic_4978">
        <rect x="2459.939" y="-131.6552" width="40.5" height="40.5" fill="#ececec"/>
        <rect x="2459.939" y="-131.6552" width="40.5" height="40.5" stroke="white" stroke-linecap="round" stroke-linejoin="round" stroke-width="2"/>
      </g>
      <g id="Graphic_4977">
        <rect x="2500.439" y="-131.6552" width="40.5" height="40.5" fill="#f9ca9c"/>
        <rect x="2500.439" y="-131.6552" width="40.5" height="40.5" stroke="white" stroke-linecap="round" stroke-linejoin="round" stroke-width="2"/>
      </g>
      <g id="Graphic_4976">
        <rect x="2540.939" y="-131.6552" width="40.5" height="40.5" fill="#ececec"/>
        <rect x="2540.939" y="-131.6552" width="40.5" height="40.5" stroke="white" stroke-linecap="round" stroke-linejoin="round" stroke-width="2"/>
      </g>
      <g id="Graphic_4975">
        <rect x="2581.439" y="-131.6552" width="40.5" height="40.5" fill="#ececec"/>
        <rect x="2581.439" y="-131.6552" width="40.5" height="40.5" stroke="white" stroke-linecap="round" stroke-linejoin="round" stroke-width="2"/>
      </g>
      <g id="Graphic_4974">
        <rect x="2621.939" y="-131.6552" width="40.5" height="40.5" fill="#f9ca9c"/>
        <rect x="2621.939" y="-131.6552" width="40.5" height="40.5" stroke="white" stroke-linecap="round" stroke-linejoin="round" stroke-width="2"/>
      </g>
      <g id="Graphic_4973">
        <rect x="2621.939" y="-332.1552" width="40.5" height="40.5" fill="#ececec"/>
        <rect x="2621.939" y="-332.1552" width="40.5" height="40.5" stroke="white" stroke-linecap="round" stroke-linejoin="round" stroke-width="2"/>
      </g>
      <g id="Graphic_4972">
        <rect x="2419.439" y="-251.6552" width="40.5" height="40.5" fill="#ececec"/>
        <rect x="2419.439" y="-251.6552" width="40.5" height="40.5" stroke="white" stroke-linecap="round" stroke-linejoin="round" stroke-width="2"/>
      </g>
      <g id="Graphic_4971">
        <rect x="2621.939" y="-251.6552" width="40.5" height="40.5" fill="#ececec"/>
        <rect x="2621.939" y="-251.6552" width="40.5" height="40.5" stroke="white" stroke-linecap="round" stroke-linejoin="round" stroke-width="2"/>
      </g>
      <g id="Graphic_4970">
        <rect x="2425.398" y="-367.95895" width="29.826206" height="29.46411" stroke="black" stroke-linecap="round" stroke-linejoin="round" stroke-width="1"/>
        <text transform="translate(2430.398 -362.95895)" fill="black">
          <tspan font-family="Helvetica Neue" font-weight="bold" font-size="16" fill="black" x="4.433103" y="16">A</tspan>
        </text>
      </g>
      <g id="Graphic_4969">
        <rect x="2468.5552" y="-367.95895" width="24.512" height="29.46411" fill="white"/>
        <text transform="translate(2473.5552 -362.95895)" fill="black">
          <tspan font-family="Helvetica Neue" font-weight="bold" font-size="16" fill="black" x="0" y="16">M</tspan>
        </text>
      </g>
      <g id="Graphic_4968">
        <rect x="2506.99" y="-367.95895" width="29.826206" height="29.46411" stroke="black" stroke-linecap="round" stroke-linejoin="round" stroke-width="1"/>
        <text transform="translate(2511.99 -362.95895)" fill="black">
          <tspan font-family="Helvetica Neue" font-weight="bold" font-size="16" fill="black" x="3.985103" y="16">C</tspan>
        </text>
      </g>
      <g id="Graphic_4967">
        <rect x="2550.7392" y="-367.95895" width="24.512" height="29.46411" fill="white"/>
        <text transform="translate(2555.7392 -362.95895)" fill="black">
          <tspan font-family="Helvetica Neue" font-weight="bold" font-size="16" fill="black" x="0" y="16">M</tspan>
        </text>
      </g>
      <g id="Graphic_4966">
        <rect x="2591.3425" y="-367.95895" width="24.512" height="29.46411" fill="white"/>
        <text transform="translate(2596.3425 -362.95895)" fill="black">
          <tspan font-family="Helvetica Neue" font-weight="bold" font-size="16" fill="black" x="0" y="16">M</tspan>
        </text>
      </g>
      <g id="Graphic_4965">
        <rect x="2628.0653" y="-367.95895" width="29.970206" height="29.46411" stroke="black" stroke-linecap="round" stroke-linejoin="round" stroke-width="1"/>
        <text transform="translate(2633.0653 -362.95895)" fill="black">
          <tspan font-family="Helvetica Neue" font-weight="bold" font-size="16" fill="black" x="5.2411027" y="16">F</tspan>
        </text>
      </g>
      <g id="Graphic_4964">
        <text transform="translate(2435.8722 -395.9984)" fill="#a5a5a5">
          <tspan font-family="Helvetica Neue" font-weight="bold" font-size="16" fill="#a5a5a5" x="31974423e-20" y="16">1</tspan>
        </text>
      </g>
      <g id="Graphic_4963">
        <text transform="translate(2476.3722 -395.9984)" fill="#a5a5a5">
          <tspan font-family="Helvetica Neue" font-weight="bold" font-size="16" fill="#a5a5a5" x="31974423e-20" y="16">2</tspan>
        </text>
      </g>
      <g id="Graphic_4962">
        <text transform="translate(2517.4642 -395.9984)" fill="#a5a5a5">
          <tspan font-family="Helvetica Neue" font-weight="bold" font-size="16" fill="#a5a5a5" x="31974423e-20" y="16">3</tspan>
        </text>
      </g>
      <g id="Graphic_4961">
        <text transform="translate(2558.5562 -395.9984)" fill="#a5a5a5">
          <tspan font-family="Helvetica Neue" font-weight="bold" font-size="16" fill="#a5a5a5" x="31974423e-20" y="16">4</tspan>
        </text>
      </g>
      <g id="Graphic_4960">
        <text transform="translate(2597.6873 -395.95895)" fill="#a5a5a5">
          <tspan font-family="Helvetica Neue" font-weight="bold" font-size="16" fill="#a5a5a5" x="31974423e-20" y="16">5</tspan>
        </text>
      </g>
      <g id="Graphic_4959">
        <text transform="translate(2638.6024 -395.95895)" fill="#a5a5a5">
          <tspan font-family="Helvetica Neue" font-weight="bold" font-size="16" fill="#a5a5a5" x="31974423e-20" y="16">6</tspan>
        </text>
      </g>
      <g id="Graphic_4958">
        <rect x="2383.85" y="-326.0767" width="29.826206" height="29.46411" stroke="black" stroke-linecap="round" stroke-linejoin="round" stroke-width="1"/>
        <text transform="translate(2388.85 -321.0767)" fill="black">
          <tspan font-family="Helvetica Neue" font-weight="bold" font-size="16" fill="black" x="4.433103" y="16">A</tspan>
        </text>
      </g>
      <g id="Graphic_4957">
        <rect x="2386.579" y="-286.08475" width="24.512" height="29.46411" fill="white"/>
        <text transform="translate(2391.579 -281.08475)" fill="black">
          <tspan font-family="Helvetica Neue" font-weight="bold" font-size="16" fill="black" x="0" y="16">M</tspan>
        </text>
      </g>
      <g id="Graphic_4956">
        <rect x="2383.706" y="-245.5767" width="29.970206" height="29.46411" stroke="black" stroke-linecap="round" stroke-linejoin="round" stroke-width="1"/>
        <text transform="translate(2388.706 -240.5767)" fill="black">
          <tspan font-family="Helvetica Neue" font-weight="bold" font-size="16" fill="black" x="4.0571027" y="16">C</tspan>
        </text>
      </g>
      <g id="Graphic_4955">
        <rect x="2383.85" y="-125.57669" width="29.970206" height="29.46411" stroke="black" stroke-linecap="round" stroke-linejoin="round" stroke-width="1"/>
        <text transform="translate(2388.85 -120.57669)" fill="black">
          <tspan font-family="Helvetica Neue" font-weight="bold" font-size="16" fill="black" x="5.2411027" y="16">F</tspan>
        </text>
      </g>
      <g id="Graphic_4954">
        <rect x="2386.579" y="-164.84582" width="24.512" height="29.46411" fill="white"/>
        <text transform="translate(2391.579 -159.84582)" fill="black">
          <tspan font-family="Helvetica Neue" font-weight="bold" font-size="16" fill="black" x="0" y="16">M</tspan>
        </text>
      </g>
      <g id="Graphic_4953">
        <rect x="2386.579" y="-205.7017" width="24.512" height="29.46411" fill="white"/>
        <text transform="translate(2391.579 -200.7017)" fill="black">
          <tspan font-family="Helvetica Neue" font-weight="bold" font-size="16" fill="black" x="0" y="16">M</tspan>
        </text>
      </g>
      <g id="Graphic_4952">
        <text transform="translate(2363.9327 -321.0767)" fill="#a5a5a5">
          <tspan font-family="Helvetica Neue" font-weight="bold" font-size="16" fill="#a5a5a5" x="31974423e-20" y="16">1</tspan>
        </text>
      </g>
      <g id="Graphic_4951">
        <text transform="translate(2363.6457 -280.8267)" fill="#a5a5a5">
          <tspan font-family="Helvetica Neue" font-weight="bold" font-size="16" fill="#a5a5a5" x="31974423e-20" y="16">2</tspan>
        </text>
      </g>
      <g id="Graphic_4950">
        <text transform="translate(2363.3587 -240.09833)" fill="#a5a5a5">
          <tspan font-family="Helvetica Neue" font-weight="bold" font-size="16" fill="#a5a5a5" x="31974423e-20" y="16">3</tspan>
        </text>
      </g>
      <g id="Graphic_4949">
        <text transform="translate(2363.3587 -121.57669)" fill="#a5a5a5">
          <tspan font-family="Helvetica Neue" font-weight="bold" font-size="16" fill="#a5a5a5" x="31974423e-20" y="16">6</tspan>
        </text>
      </g>
      <g id="Graphic_4948">
        <text transform="translate(2363.3587 -161.05064)" fill="#a5a5a5">
          <tspan font-family="Helvetica Neue" font-weight="bold" font-size="16" fill="#a5a5a5" x="31974423e-20" y="16">5</tspan>
        </text>
      </g>
      <g id="Graphic_4947">
        <text transform="translate(2363.6457 -201.05034)" fill="#a5a5a5">
          <tspan font-family="Helvetica Neue" font-weight="bold" font-size="16" fill="#a5a5a5" x="31974423e-20" y="16">4</tspan>
        </text>
      </g>
      <g id="Graphic_4945">
        <rect x="2779.9618" y="-332.7069" width="40.5" height="40.5" fill="#ececec"/>
        <rect x="2779.9618" y="-332.7069" width="40.5" height="40.5" stroke="white" stroke-linecap="round" stroke-linejoin="round" stroke-width="2"/>
      </g>
      <g id="Graphic_4944">
        <rect x="2820.4618" y="-332.7069" width="40.5" height="40.5" fill="#ececec"/>
        <rect x="2820.4618" y="-332.7069" width="40.5" height="40.5" stroke="white" stroke-linecap="round" stroke-linejoin="round" stroke-width="2"/>
      </g>
      <g id="Graphic_4943">
        <rect x="2820.4618" y="-292.2069" width="40.5" height="40.5" fill="#ececec"/>
        <rect x="2820.4618" y="-292.2069" width="40.5" height="40.5" stroke="white" stroke-linecap="round" stroke-linejoin="round" stroke-width="2"/>
      </g>
      <g id="Graphic_4942">
        <rect x="2706.3392" y="-207.18052" width="24.512" height="29.46411" fill="white"/>
        <text transform="translate(2711.3392 -202.18052)" fill="black">
          <tspan font-family="Helvetica Neue" font-weight="bold" font-size="16" fill="black" x="0" y="16">M</tspan>
        </text>
      </g>
      <g id="Graphic_4941">
        <rect x="2706.3392" y="-127.18052" width="24.512" height="29.46411" fill="white"/>
        <text transform="translate(2711.3392 -122.18052)" fill="black">
          <tspan font-family="Helvetica Neue" font-weight="bold" font-size="16" fill="black" x="0" y="16">M</tspan>
        </text>
      </g>
      <g id="Graphic_4940">
        <rect x="2706.1952" y="-167.18052" width="24.512" height="29.46411" fill="white"/>
        <text transform="translate(2711.1952 -162.18052)" fill="black">
          <tspan font-family="Helvetica Neue" font-weight="bold" font-size="16" fill="black" x="0" y="16">M</tspan>
        </text>
      </g>
      <g id="Graphic_4939">
        <text transform="translate(2681.502 -282.1805)" fill="#a5a5a5">
          <tspan font-family="Helvetica Neue" font-weight="bold" font-size="16" fill="#a5a5a5" x="31974423e-20" y="16">1</tspan>
        </text>
      </g>
      <g id="Graphic_4938">
        <text transform="translate(2681.502 -122.18052)" fill="#a5a5a5">
          <tspan font-family="Helvetica Neue" font-weight="bold" font-size="16" fill="#a5a5a5" x="31974423e-20" y="16">2</tspan>
        </text>
      </g>
      <g id="Graphic_4937">
        <text transform="translate(2681.502 -322.6805)" fill="#a5a5a5">
          <tspan font-family="Helvetica Neue" font-weight="bold" font-size="16" fill="#a5a5a5" x="31974423e-20" y="16">3</tspan>
        </text>
      </g>
      <g id="Graphic_4936">
        <text transform="translate(2681.502 -242.18052)" fill="#a5a5a5">
          <tspan font-family="Helvetica Neue" font-weight="bold" font-size="16" fill="#a5a5a5" x="31974423e-20" y="16">6</tspan>
        </text>
      </g>
      <g id="Graphic_4935">
        <text transform="translate(2681.215 -163.18052)" fill="#a5a5a5">
          <tspan font-family="Helvetica Neue" font-weight="bold" font-size="16" fill="#a5a5a5" x="31974423e-20" y="16">5</tspan>
        </text>
      </g>
      <g id="Graphic_4934">
        <text transform="translate(2681.502 -202.91314)" fill="#a5a5a5">
          <tspan font-family="Helvetica Neue" font-weight="bold" font-size="16" fill="#a5a5a5" x="31974423e-20" y="16">4</tspan>
        </text>
      </g>
      <g id="Graphic_4933">
        <rect x="2703.61" y="-327.1805" width="29.970206" height="29.46411" stroke="black" stroke-linecap="round" stroke-linejoin="round" stroke-width="1"/>
        <text transform="translate(2708.61 -322.1805)" fill="black">
          <tspan font-family="Helvetica Neue" font-weight="bold" font-size="16" fill="black" x="4.0571027" y="16">C</tspan>
        </text>
      </g>
      <g id="Graphic_4932">
        <rect x="2703.61" y="-287.1805" width="29.970206" height="29.46411" stroke="black" stroke-linecap="round" stroke-linejoin="round" stroke-width="1"/>
        <text transform="translate(2708.61 -282.1805)" fill="black">
          <tspan font-family="Helvetica Neue" font-weight="bold" font-size="16" fill="black" x="4.5051027" y="16">A</tspan>
        </text>
      </g>
      <g id="Graphic_4931">
        <rect x="2703.61" y="-247.18052" width="29.970206" height="29.46411" stroke="black" stroke-linecap="round" stroke-linejoin="round" stroke-width="1"/>
        <text transform="translate(2708.61 -242.18052)" fill="black">
          <tspan font-family="Helvetica Neue" font-weight="bold" font-size="16" fill="black" x="5.2411027" y="16">F</tspan>
        </text>
      </g>
      <g id="Graphic_4930">
        <rect x="2869.2073" y="-367.25755" width="24.512" height="29.46411" fill="white"/>
        <text transform="translate(2874.2073 -362.25755)" fill="black">
          <tspan font-family="Helvetica Neue" font-weight="bold" font-size="16" fill="black" x="0" y="16">M</tspan>
        </text>
      </g>
      <g id="Graphic_4929">
        <rect x="2910.5953" y="-367.25755" width="24.512" height="29.46411" fill="white"/>
        <text transform="translate(2915.5953 -362.25755)" fill="black">
          <tspan font-family="Helvetica Neue" font-weight="bold" font-size="16" fill="black" x="0" y="16">M</tspan>
        </text>
      </g>
      <g id="Graphic_4928">
        <rect x="2951.9833" y="-367.25755" width="24.512" height="29.46411" fill="white"/>
        <text transform="translate(2956.9833 -362.25755)" fill="black">
          <tspan font-family="Helvetica Neue" font-weight="bold" font-size="16" fill="black" x="0" y="16">M</tspan>
        </text>
      </g>
      <g id="Graphic_4927">
        <text transform="translate(2796.0153 -396.75755)" fill="#a5a5a5">
          <tspan font-family="Helvetica Neue" font-weight="bold" font-size="16" fill="#a5a5a5" x="31974423e-20" y="16">1</tspan>
        </text>
      </g>
      <g id="Graphic_4926">
        <text transform="translate(2959.7913 -395.93787)" fill="#a5a5a5">
          <tspan font-family="Helvetica Neue" font-weight="bold" font-size="16" fill="#a5a5a5" x="31974423e-20" y="16">2</tspan>
        </text>
      </g>
      <g id="Graphic_4925">
        <text transform="translate(2755.5153 -396.75755)" fill="#a5a5a5">
          <tspan font-family="Helvetica Neue" font-weight="bold" font-size="16" fill="#a5a5a5" x="31974423e-20" y="16">3</tspan>
        </text>
      </g>
      <g id="Graphic_4924">
        <text transform="translate(2877.0153 -395.93787)" fill="#a5a5a5">
          <tspan font-family="Helvetica Neue" font-weight="bold" font-size="16" fill="#a5a5a5" x="31974423e-20" y="16">4</tspan>
        </text>
      </g>
      <g id="Graphic_4923">
        <text transform="translate(2918.4033 -395.93787)" fill="#a5a5a5">
          <tspan font-family="Helvetica Neue" font-weight="bold" font-size="16" fill="#a5a5a5" x="31974423e-20" y="16">5</tspan>
        </text>
      </g>
      <g id="Graphic_4922">
        <text transform="translate(2836.2193 -396.75755)" fill="#a5a5a5">
          <tspan font-family="Helvetica Neue" font-weight="bold" font-size="16" fill="#a5a5a5" x="31974423e-20" y="16">6</tspan>
        </text>
      </g>
      <g id="Graphic_4921">
        <rect x="2744.9782" y="-368.6969" width="29.970206" height="29.46411" stroke="black" stroke-linecap="round" stroke-linejoin="round" stroke-width="1"/>
        <text transform="translate(2749.9782 -363.6969)" fill="black">
          <tspan font-family="Helvetica Neue" font-weight="bold" font-size="16" fill="black" x="4.0571027" y="16">C</tspan>
        </text>
      </g>
      <g id="Graphic_4920">
        <rect x="2785.4782" y="-368.6969" width="29.970206" height="29.46411" stroke="black" stroke-linecap="round" stroke-linejoin="round" stroke-width="1"/>
        <text transform="translate(2790.4782 -363.6969)" fill="black">
          <tspan font-family="Helvetica Neue" font-weight="bold" font-size="16" fill="black" x="4.5051027" y="16">A</tspan>
        </text>
      </g>
      <g id="Graphic_4919">
        <rect x="2825.6822" y="-368.6969" width="29.970206" height="29.46411" stroke="black" stroke-linecap="round" stroke-linejoin="round" stroke-width="1"/>
        <text transform="translate(2830.6822 -363.6969)" fill="black">
          <tspan font-family="Helvetica Neue" font-weight="bold" font-size="16" fill="black" x="5.2411027" y="16">F</tspan>
        </text>
      </g>
    </g>
  </g>
</svg>
